<?xml version="1.0" encoding="UTF-8" standalone="no"?>
<svg
   xmlns:dc="http://purl.org/dc/elements/1.1/"
   xmlns:cc="http://creativecommons.org/ns#"
   xmlns:rdf="http://www.w3.org/1999/02/22-rdf-syntax-ns#"
   xmlns:svg="http://www.w3.org/2000/svg"
   xmlns="http://www.w3.org/2000/svg"
   xmlns:sodipodi="http://sodipodi.sourceforge.net/DTD/sodipodi-0.dtd"
   xmlns:inkscape="http://www.inkscape.org/namespaces/inkscape"
   width="135.8mm"
   height="85.8mm"
   viewBox="0 0 135800 85800"
   version="1.1"
   id="svg224"
   sodipodi:docname="C_1000_64.svg"
   inkscape:version="0.92.1 r15371">
  <metadata
     id="metadata228">
    <rdf:RDF>
      <cc:Work
         rdf:about="">
        <dc:format>image/svg+xml</dc:format>
        <dc:type
           rdf:resource="http://purl.org/dc/dcmitype/StillImage" />
        <dc:title></dc:title>
      </cc:Work>
    </rdf:RDF>
  </metadata>
  <sodipodi:namedview
     pagecolor="#ffffff"
     bordercolor="#666666"
     borderopacity="1"
     objecttolerance="10"
     gridtolerance="10"
     guidetolerance="10"
     inkscape:pageopacity="0"
     inkscape:pageshadow="2"
     inkscape:window-width="1536"
     inkscape:window-height="801"
     id="namedview226"
     showgrid="false"
     inkscape:zoom="2.2366838"
     inkscape:cx="256.62993"
     inkscape:cy="180.02536"
     inkscape:window-x="-8"
     inkscape:window-y="-8"
     inkscape:window-maximized="1"
     inkscape:current-layer="svg224" />
  <defs
     id="defs112">
    <radialGradient
       cx="32300"
       cy="24800"
       r="750"
       gradientUnits="userSpaceOnUse"
       id="color-1"
       gradientTransform="matrix(-1,0,0,1,135000,0)">
      <stop
         offset="0.06667"
         stop-color="#f44336"
         id="stop2" />
      <stop
         offset="0.06667"
         stop-color="#b71c1c"
         id="stop4" />
    </radialGradient>
    <radialGradient
       cx="31300"
       cy="35200"
       r="750"
       gradientUnits="userSpaceOnUse"
       id="color-2"
       gradientTransform="matrix(-1,0,0,1,135000,0)">
      <stop
         offset="0.08"
         stop-color="#f44336"
         id="stop7" />
      <stop
         offset="0.08"
         stop-color="#b71c1c"
         id="stop9" />
    </radialGradient>
    <radialGradient
       cx="31800"
       cy="30000"
       r="750"
       gradientUnits="userSpaceOnUse"
       id="color-3"
       gradientTransform="matrix(-1,0,0,1,135000,0)">
      <stop
         offset="0.08"
         stop-color="#f44336"
         id="stop12" />
      <stop
         offset="0.08"
         stop-color="#b71c1c"
         id="stop14" />
    </radialGradient>
    <radialGradient
       cx="45800"
       cy="52000"
       r="750"
       gradientUnits="userSpaceOnUse"
       id="color-4"
       gradientTransform="matrix(-1,0,0,1,135000,0)">
      <stop
         offset="0.13333"
         stop-color="#f44336"
         id="stop17" />
      <stop
         offset="0.13333"
         stop-color="#b71c1c"
         id="stop19" />
    </radialGradient>
    <radialGradient
       cx="66000"
       cy="52000"
       r="750"
       gradientUnits="userSpaceOnUse"
       id="color-5"
       gradientTransform="matrix(-1,0,0,1,135000,0)">
      <stop
         offset="0.13333"
         stop-color="#f44336"
         id="stop22" />
      <stop
         offset="0.13333"
         stop-color="#b71c1c"
         id="stop24" />
    </radialGradient>
    <radialGradient
       cx="40200"
       cy="30000"
       r="750"
       gradientUnits="userSpaceOnUse"
       id="color-6"
       gradientTransform="matrix(-1,0,0,1,135000,0)">
      <stop
         offset="0.13333"
         stop-color="#f44336"
         id="stop27" />
      <stop
         offset="0.13333"
         stop-color="#b71c1c"
         id="stop29" />
    </radialGradient>
    <radialGradient
       cx="39700"
       cy="35200"
       r="750"
       gradientUnits="userSpaceOnUse"
       id="color-7"
       gradientTransform="matrix(-1,0,0,1,135000,0)">
      <stop
         offset="0.13333"
         stop-color="#f44336"
         id="stop32" />
      <stop
         offset="0.13333"
         stop-color="#b71c1c"
         id="stop34" />
    </radialGradient>
    <radialGradient
       cx="60500"
       cy="35200"
       r="750"
       gradientUnits="userSpaceOnUse"
       id="color-8"
       gradientTransform="matrix(-1,0,0,1,135000,0)">
      <stop
         offset="0.13333"
         stop-color="#f44336"
         id="stop37" />
      <stop
         offset="0.13333"
         stop-color="#b71c1c"
         id="stop39" />
    </radialGradient>
    <radialGradient
       cx="50100"
       cy="35200"
       r="750"
       gradientUnits="userSpaceOnUse"
       id="color-9"
       gradientTransform="matrix(-1,0,0,1,135000,0)">
      <stop
         offset="0.13333"
         stop-color="#f44336"
         id="stop42" />
      <stop
         offset="0.13333"
         stop-color="#b71c1c"
         id="stop44" />
    </radialGradient>
    <radialGradient
       cx="50600"
       cy="30000"
       r="750"
       gradientUnits="userSpaceOnUse"
       id="color-10"
       gradientTransform="matrix(-1,0,0,1,135000,0)">
      <stop
         offset="0.13333"
         stop-color="#f44336"
         id="stop47" />
      <stop
         offset="0.13333"
         stop-color="#b71c1c"
         id="stop49" />
    </radialGradient>
    <radialGradient
       cx="61000"
       cy="30000"
       r="750"
       gradientUnits="userSpaceOnUse"
       id="color-11"
       gradientTransform="matrix(-1,0,0,1,135000,0)">
      <stop
         offset="0.13333"
         stop-color="#f44336"
         id="stop52" />
      <stop
         offset="0.13333"
         stop-color="#b71c1c"
         id="stop54" />
    </radialGradient>
    <radialGradient
       cx="74800"
       cy="34200"
       r="750"
       gradientUnits="userSpaceOnUse"
       id="color-12"
       gradientTransform="matrix(-1,0,0,1,135000,0)">
      <stop
         offset="0.13333"
         stop-color="#f44336"
         id="stop57" />
      <stop
         offset="0.13333"
         stop-color="#b71c1c"
         id="stop59" />
    </radialGradient>
    <radialGradient
       cx="74400"
       cy="30000"
       r="750"
       gradientUnits="userSpaceOnUse"
       id="color-13"
       gradientTransform="matrix(-1,0,0,1,135000,0)">
      <stop
         offset="0.13333"
         stop-color="#f44336"
         id="stop62" />
      <stop
         offset="0.13333"
         stop-color="#b71c1c"
         id="stop64" />
    </radialGradient>
    <radialGradient
       cx="83000"
       cy="36300"
       r="750"
       gradientUnits="userSpaceOnUse"
       id="color-14"
       gradientTransform="matrix(-1,0,0,1,135000,0)">
      <stop
         offset="0.13333"
         stop-color="#f44336"
         id="stop67" />
      <stop
         offset="0.13333"
         stop-color="#b71c1c"
         id="stop69" />
    </radialGradient>
    <radialGradient
       cx="83000"
       cy="27000"
       r="750"
       gradientUnits="userSpaceOnUse"
       id="color-15"
       gradientTransform="matrix(-1,0,0,1,135000,0)">
      <stop
         offset="0.13333"
         stop-color="#f44336"
         id="stop72" />
      <stop
         offset="0.13333"
         stop-color="#b71c1c"
         id="stop74" />
    </radialGradient>
    <radialGradient
       cx="73900"
       cy="24800"
       r="750"
       gradientUnits="userSpaceOnUse"
       id="color-16"
       gradientTransform="matrix(-1,0,0,1,135000,0)">
      <stop
         offset="0.13333"
         stop-color="#f44336"
         id="stop77" />
      <stop
         offset="0.13333"
         stop-color="#b71c1c"
         id="stop79" />
    </radialGradient>
    <radialGradient
       cx="61500"
       cy="24800"
       r="750"
       gradientUnits="userSpaceOnUse"
       id="color-17"
       gradientTransform="matrix(-1,0,0,1,135000,0)">
      <stop
         offset="0.13333"
         stop-color="#f44336"
         id="stop82" />
      <stop
         offset="0.13333"
         stop-color="#b71c1c"
         id="stop84" />
    </radialGradient>
    <radialGradient
       cx="51100"
       cy="24800"
       r="750"
       gradientUnits="userSpaceOnUse"
       id="color-18"
       gradientTransform="matrix(-1,0,0,1,135000,0)">
      <stop
         offset="0.13333"
         stop-color="#f44336"
         id="stop87" />
      <stop
         offset="0.13333"
         stop-color="#b71c1c"
         id="stop89" />
    </radialGradient>
    <radialGradient
       cx="40700"
       cy="24800"
       r="750"
       gradientUnits="userSpaceOnUse"
       id="color-19"
       gradientTransform="matrix(-1,0,0,1,135000,0)">
      <stop
         offset="0.13333"
         stop-color="#f44336"
         id="stop92" />
      <stop
         offset="0.13333"
         stop-color="#b71c1c"
         id="stop94" />
    </radialGradient>
    <radialGradient
       cx="80000"
       cy="63000"
       r="2020"
       gradientUnits="userSpaceOnUse"
       id="color-20"
       gradientTransform="matrix(-1,0,0,1,135000,0)">
      <stop
         offset="1"
         stop-color="#ef5350"
         id="stop97" />
      <stop
         offset="1"
         stop-color="#b71c1c"
         id="stop99" />
    </radialGradient>
    <radialGradient
       cx="100000"
       cy="60000"
       r="2020"
       gradientUnits="userSpaceOnUse"
       id="color-21"
       gradientTransform="matrix(-1,0,0,1,135000,0)">
      <stop
         offset="1"
         stop-color="#ef5350"
         id="stop102" />
      <stop
         offset="1"
         stop-color="#b71c1c"
         id="stop104" />
    </radialGradient>
    <radialGradient
       cx="110000"
       cy="40000"
       r="2020"
       gradientUnits="userSpaceOnUse"
       id="color-22"
       gradientTransform="matrix(-1,0,0,1,135000,0)">
      <stop
         offset="1"
         stop-color="#ef5350"
         id="stop107" />
      <stop
         offset="1"
         stop-color="#b71c1c"
         id="stop109" />
    </radialGradient>
  </defs>
  <path
     inkscape:connector-curvature="0"
     style="font-family:none;mix-blend-mode:normal;fill:url(#color-1);fill-rule:nonzero;stroke:none;stroke-width:1;stroke-linecap:butt;stroke-linejoin:miter;stroke-miterlimit:10;stroke-dasharray:none;stroke-dashoffset:0"
     id="path178"
     d="m 103450,24800 c 0,-414.214 -335.79,-750 -750,-750 -414.21,0 -750,335.786 -750,750 0,414.214 335.79,750 750,750 414.21,0 750,-335.786 750,-750 z" />
  <path
     inkscape:connector-curvature="0"
     style="font-family:none;mix-blend-mode:normal;fill:url(#color-2);fill-rule:nonzero;stroke:none;stroke-width:1;stroke-linecap:butt;stroke-linejoin:miter;stroke-miterlimit:10;stroke-dasharray:none;stroke-dashoffset:0"
     id="path180"
     d="m 104450,35200 c 0,-414.214 -335.79,-750 -750,-750 -414.21,0 -750,335.786 -750,750 0,414.214 335.79,750 750,750 414.21,0 750,-335.786 750,-750 z" />
  <path
     inkscape:connector-curvature="0"
     style="font-family:none;mix-blend-mode:normal;fill:url(#color-3);fill-rule:nonzero;stroke:none;stroke-width:1;stroke-linecap:butt;stroke-linejoin:miter;stroke-miterlimit:10;stroke-dasharray:none;stroke-dashoffset:0"
     id="path182"
     d="m 103950,30000 c 0,-414.214 -335.79,-750 -750,-750 -414.21,0 -750,335.786 -750,750 0,414.214 335.79,750 750,750 414.21,0 750,-335.786 750,-750 z" />
  <path
     inkscape:connector-curvature="0"
     style="font-family:none;mix-blend-mode:normal;fill:url(#color-4);fill-rule:nonzero;stroke:none;stroke-width:1;stroke-linecap:butt;stroke-linejoin:miter;stroke-miterlimit:10;stroke-dasharray:none;stroke-dashoffset:0"
     id="path184"
     d="m 89950,52000 c 0,-414.214 -335.786,-750 -750,-750 -414.214,0 -750,335.786 -750,750 0,414.214 335.786,750 750,750 414.214,0 750,-335.786 750,-750 z" />
  <path
     inkscape:connector-curvature="0"
     style="font-family:none;mix-blend-mode:normal;fill:url(#color-5);fill-rule:nonzero;stroke:none;stroke-width:1;stroke-linecap:butt;stroke-linejoin:miter;stroke-miterlimit:10;stroke-dasharray:none;stroke-dashoffset:0"
     id="path186"
     d="m 69750,52000 c 0,-414.214 -335.786,-750 -750,-750 -414.214,0 -750,335.786 -750,750 0,414.214 335.786,750 750,750 414.214,0 750,-335.786 750,-750 z" />
  <path
     inkscape:connector-curvature="0"
     style="font-family:none;mix-blend-mode:normal;fill:url(#color-6);fill-rule:nonzero;stroke:none;stroke-width:1;stroke-linecap:butt;stroke-linejoin:miter;stroke-miterlimit:10;stroke-dasharray:none;stroke-dashoffset:0"
     id="path188"
     d="m 95550,30000 c 0,-414.214 -335.786,-750 -750,-750 -414.214,0 -750,335.786 -750,750 0,414.214 335.786,750 750,750 414.214,0 750,-335.786 750,-750 z" />
  <path
     inkscape:connector-curvature="0"
     style="font-family:none;mix-blend-mode:normal;fill:url(#color-7);fill-rule:nonzero;stroke:none;stroke-width:1;stroke-linecap:butt;stroke-linejoin:miter;stroke-miterlimit:10;stroke-dasharray:none;stroke-dashoffset:0"
     id="path190"
     d="m 96050,35200 c 0,-414.214 -335.786,-750 -750,-750 -414.214,0 -750,335.786 -750,750 0,414.214 335.786,750 750,750 414.214,0 750,-335.786 750,-750 z" />
  <path
     inkscape:connector-curvature="0"
     style="font-family:none;mix-blend-mode:normal;fill:url(#color-8);fill-rule:nonzero;stroke:none;stroke-width:1;stroke-linecap:butt;stroke-linejoin:miter;stroke-miterlimit:10;stroke-dasharray:none;stroke-dashoffset:0"
     id="path192"
     d="m 75250,35200 c 0,-414.214 -335.786,-750 -750,-750 -414.214,0 -750,335.786 -750,750 0,414.214 335.786,750 750,750 414.214,0 750,-335.786 750,-750 z" />
  <path
     inkscape:connector-curvature="0"
     style="font-family:none;mix-blend-mode:normal;fill:url(#color-9);fill-rule:nonzero;stroke:none;stroke-width:1;stroke-linecap:butt;stroke-linejoin:miter;stroke-miterlimit:10;stroke-dasharray:none;stroke-dashoffset:0"
     id="path194"
     d="m 85650,35200 c 0,-414.214 -335.786,-750 -750,-750 -414.214,0 -750,335.786 -750,750 0,414.214 335.786,750 750,750 414.214,0 750,-335.786 750,-750 z" />
  <path
     inkscape:connector-curvature="0"
     style="font-family:none;mix-blend-mode:normal;fill:url(#color-10);fill-rule:nonzero;stroke:none;stroke-width:1;stroke-linecap:butt;stroke-linejoin:miter;stroke-miterlimit:10;stroke-dasharray:none;stroke-dashoffset:0"
     id="path196"
     d="m 85150,30000 c 0,-414.214 -335.786,-750 -750,-750 -414.214,0 -750,335.786 -750,750 0,414.214 335.786,750 750,750 414.214,0 750,-335.786 750,-750 z" />
  <path
     inkscape:connector-curvature="0"
     style="font-family:none;mix-blend-mode:normal;fill:url(#color-11);fill-rule:nonzero;stroke:none;stroke-width:1;stroke-linecap:butt;stroke-linejoin:miter;stroke-miterlimit:10;stroke-dasharray:none;stroke-dashoffset:0"
     id="path198"
     d="m 74750,30000 c 0,-414.214 -335.786,-750 -750,-750 -414.214,0 -750,335.786 -750,750 0,414.214 335.786,750 750,750 414.214,0 750,-335.786 750,-750 z" />
  <path
     inkscape:connector-curvature="0"
     style="font-family:none;mix-blend-mode:normal;fill:url(#color-12);fill-rule:nonzero;stroke:none;stroke-width:1;stroke-linecap:butt;stroke-linejoin:miter;stroke-miterlimit:10;stroke-dasharray:none;stroke-dashoffset:0"
     id="path200"
     d="m 60950,34200 c 0,-414.214 -335.786,-750 -750,-750 -414.214,0 -750,335.786 -750,750 0,414.214 335.786,750 750,750 414.214,0 750,-335.786 750,-750 z" />
  <path
     inkscape:connector-curvature="0"
     style="font-family:none;mix-blend-mode:normal;fill:url(#color-13);fill-rule:nonzero;stroke:none;stroke-width:1;stroke-linecap:butt;stroke-linejoin:miter;stroke-miterlimit:10;stroke-dasharray:none;stroke-dashoffset:0"
     id="path202"
     d="m 61350,30000 c 0,-414.214 -335.786,-750 -750,-750 -414.214,0 -750,335.786 -750,750 0,414.214 335.786,750 750,750 414.214,0 750,-335.786 750,-750 z" />
  <path
     inkscape:connector-curvature="0"
     style="font-family:none;mix-blend-mode:normal;fill:url(#color-14);fill-rule:nonzero;stroke:none;stroke-width:1;stroke-linecap:butt;stroke-linejoin:miter;stroke-miterlimit:10;stroke-dasharray:none;stroke-dashoffset:0"
     id="path204"
     d="m 52750,36300 c 0,-414.214 -335.786,-750 -750,-750 -414.214,0 -750,335.786 -750,750 0,414.214 335.786,750 750,750 414.214,0 750,-335.786 750,-750 z" />
  <path
     inkscape:connector-curvature="0"
     style="font-family:none;mix-blend-mode:normal;fill:url(#color-15);fill-rule:nonzero;stroke:none;stroke-width:1;stroke-linecap:butt;stroke-linejoin:miter;stroke-miterlimit:10;stroke-dasharray:none;stroke-dashoffset:0"
     id="path206"
     d="m 52750,27000 c 0,-414.214 -335.786,-750 -750,-750 -414.214,0 -750,335.786 -750,750 0,414.214 335.786,750 750,750 414.214,0 750,-335.786 750,-750 z" />
  <path
     inkscape:connector-curvature="0"
     style="font-family:none;mix-blend-mode:normal;fill:url(#color-16);fill-rule:nonzero;stroke:none;stroke-width:1;stroke-linecap:butt;stroke-linejoin:miter;stroke-miterlimit:10;stroke-dasharray:none;stroke-dashoffset:0"
     id="path208"
     d="m 61850,24800 c 0,-414.214 -335.786,-750 -750,-750 -414.214,0 -750,335.786 -750,750 0,414.214 335.786,750 750,750 414.214,0 750,-335.786 750,-750 z" />
  <path
     inkscape:connector-curvature="0"
     style="font-family:none;mix-blend-mode:normal;fill:url(#color-17);fill-rule:nonzero;stroke:none;stroke-width:1;stroke-linecap:butt;stroke-linejoin:miter;stroke-miterlimit:10;stroke-dasharray:none;stroke-dashoffset:0"
     id="path210"
     d="m 74250,24800 c 0,-414.214 -335.786,-750 -750,-750 -414.214,0 -750,335.786 -750,750 0,414.214 335.786,750 750,750 414.214,0 750,-335.786 750,-750 z" />
  <path
     inkscape:connector-curvature="0"
     style="font-family:none;mix-blend-mode:normal;fill:url(#color-18);fill-rule:nonzero;stroke:none;stroke-width:1;stroke-linecap:butt;stroke-linejoin:miter;stroke-miterlimit:10;stroke-dasharray:none;stroke-dashoffset:0"
     id="path212"
     d="m 84650,24800 c 0,-414.214 -335.786,-750 -750,-750 -414.214,0 -750,335.786 -750,750 0,414.214 335.786,750 750,750 414.214,0 750,-335.786 750,-750 z" />
  <path
     inkscape:connector-curvature="0"
     style="font-family:none;mix-blend-mode:normal;fill:url(#color-19);fill-rule:nonzero;stroke:none;stroke-width:1;stroke-linecap:butt;stroke-linejoin:miter;stroke-miterlimit:10;stroke-dasharray:none;stroke-dashoffset:0"
     id="path214"
     d="m 95050,24800 c 0,-414.214 -335.786,-750 -750,-750 -414.214,0 -750,335.786 -750,750 0,414.214 335.786,750 750,750 414.214,0 750,-335.786 750,-750 z" />
</svg>
