<?xml version="1.0" encoding="UTF-8" standalone="no"?>
<svg
   xmlns:dc="http://purl.org/dc/elements/1.1/"
   xmlns:cc="http://creativecommons.org/ns#"
   xmlns:rdf="http://www.w3.org/1999/02/22-rdf-syntax-ns#"
   xmlns:svg="http://www.w3.org/2000/svg"
   xmlns="http://www.w3.org/2000/svg"
   xmlns:sodipodi="http://sodipodi.sourceforge.net/DTD/sodipodi-0.dtd"
   xmlns:inkscape="http://www.inkscape.org/namespaces/inkscape"
   width="135.8mm"
   height="85.8mm"
   viewBox="0 0 135800 85800"
   version="1.1"
   id="svg224"
   sodipodi:docname="C_150_100.svg"
   inkscape:version="0.92.1 r15371">
  <metadata
     id="metadata228">
    <rdf:RDF>
      <cc:Work
         rdf:about="">
        <dc:format>image/svg+xml</dc:format>
        <dc:type
           rdf:resource="http://purl.org/dc/dcmitype/StillImage" />
        <dc:title></dc:title>
      </cc:Work>
    </rdf:RDF>
  </metadata>
  <sodipodi:namedview
     pagecolor="#ffffff"
     bordercolor="#666666"
     borderopacity="1"
     objecttolerance="10"
     gridtolerance="10"
     guidetolerance="10"
     inkscape:pageopacity="0"
     inkscape:pageshadow="2"
     inkscape:window-width="1536"
     inkscape:window-height="801"
     id="namedview226"
     showgrid="false"
     inkscape:zoom="1.5815743"
     inkscape:cx="309.15659"
     inkscape:cy="144.01451"
     inkscape:window-x="-8"
     inkscape:window-y="-8"
     inkscape:window-maximized="1"
     inkscape:current-layer="svg224" />
  <defs
     id="defs112">
    <radialGradient
       cx="32300"
       cy="24800"
       r="750"
       gradientUnits="userSpaceOnUse"
       id="color-1"
       gradientTransform="matrix(-1,0,0,1,135000,0)">
      <stop
         offset="0.06667"
         stop-color="#f44336"
         id="stop2" />
      <stop
         offset="0.06667"
         stop-color="#b71c1c"
         id="stop4" />
    </radialGradient>
    <radialGradient
       cx="31300"
       cy="35200"
       r="750"
       gradientUnits="userSpaceOnUse"
       id="color-2"
       gradientTransform="matrix(-1,0,0,1,135000,0)">
      <stop
         offset="0.08"
         stop-color="#f44336"
         id="stop7" />
      <stop
         offset="0.08"
         stop-color="#b71c1c"
         id="stop9" />
    </radialGradient>
    <radialGradient
       cx="31800"
       cy="30000"
       r="750"
       gradientUnits="userSpaceOnUse"
       id="color-3"
       gradientTransform="matrix(-1,0,0,1,135000,0)">
      <stop
         offset="0.08"
         stop-color="#f44336"
         id="stop12" />
      <stop
         offset="0.08"
         stop-color="#b71c1c"
         id="stop14" />
    </radialGradient>
    <radialGradient
       cx="45800"
       cy="52000"
       r="750"
       gradientUnits="userSpaceOnUse"
       id="color-4"
       gradientTransform="matrix(-1,0,0,1,135000,0)">
      <stop
         offset="0.13333"
         stop-color="#f44336"
         id="stop17" />
      <stop
         offset="0.13333"
         stop-color="#b71c1c"
         id="stop19" />
    </radialGradient>
    <radialGradient
       cx="66000"
       cy="52000"
       r="750"
       gradientUnits="userSpaceOnUse"
       id="color-5"
       gradientTransform="matrix(-1,0,0,1,135000,0)">
      <stop
         offset="0.13333"
         stop-color="#f44336"
         id="stop22" />
      <stop
         offset="0.13333"
         stop-color="#b71c1c"
         id="stop24" />
    </radialGradient>
    <radialGradient
       cx="40200"
       cy="30000"
       r="750"
       gradientUnits="userSpaceOnUse"
       id="color-6"
       gradientTransform="matrix(-1,0,0,1,135000,0)">
      <stop
         offset="0.13333"
         stop-color="#f44336"
         id="stop27" />
      <stop
         offset="0.13333"
         stop-color="#b71c1c"
         id="stop29" />
    </radialGradient>
    <radialGradient
       cx="39700"
       cy="35200"
       r="750"
       gradientUnits="userSpaceOnUse"
       id="color-7"
       gradientTransform="matrix(-1,0,0,1,135000,0)">
      <stop
         offset="0.13333"
         stop-color="#f44336"
         id="stop32" />
      <stop
         offset="0.13333"
         stop-color="#b71c1c"
         id="stop34" />
    </radialGradient>
    <radialGradient
       cx="60500"
       cy="35200"
       r="750"
       gradientUnits="userSpaceOnUse"
       id="color-8"
       gradientTransform="matrix(-1,0,0,1,135000,0)">
      <stop
         offset="0.13333"
         stop-color="#f44336"
         id="stop37" />
      <stop
         offset="0.13333"
         stop-color="#b71c1c"
         id="stop39" />
    </radialGradient>
    <radialGradient
       cx="50100"
       cy="35200"
       r="750"
       gradientUnits="userSpaceOnUse"
       id="color-9"
       gradientTransform="matrix(-1,0,0,1,135000,0)">
      <stop
         offset="0.13333"
         stop-color="#f44336"
         id="stop42" />
      <stop
         offset="0.13333"
         stop-color="#b71c1c"
         id="stop44" />
    </radialGradient>
    <radialGradient
       cx="50600"
       cy="30000"
       r="750"
       gradientUnits="userSpaceOnUse"
       id="color-10"
       gradientTransform="matrix(-1,0,0,1,135000,0)">
      <stop
         offset="0.13333"
         stop-color="#f44336"
         id="stop47" />
      <stop
         offset="0.13333"
         stop-color="#b71c1c"
         id="stop49" />
    </radialGradient>
    <radialGradient
       cx="61000"
       cy="30000"
       r="750"
       gradientUnits="userSpaceOnUse"
       id="color-11"
       gradientTransform="matrix(-1,0,0,1,135000,0)">
      <stop
         offset="0.13333"
         stop-color="#f44336"
         id="stop52" />
      <stop
         offset="0.13333"
         stop-color="#b71c1c"
         id="stop54" />
    </radialGradient>
    <radialGradient
       cx="74800"
       cy="34200"
       r="750"
       gradientUnits="userSpaceOnUse"
       id="color-12"
       gradientTransform="matrix(-1,0,0,1,135000,0)">
      <stop
         offset="0.13333"
         stop-color="#f44336"
         id="stop57" />
      <stop
         offset="0.13333"
         stop-color="#b71c1c"
         id="stop59" />
    </radialGradient>
    <radialGradient
       cx="74400"
       cy="30000"
       r="750"
       gradientUnits="userSpaceOnUse"
       id="color-13"
       gradientTransform="matrix(-1,0,0,1,135000,0)">
      <stop
         offset="0.13333"
         stop-color="#f44336"
         id="stop62" />
      <stop
         offset="0.13333"
         stop-color="#b71c1c"
         id="stop64" />
    </radialGradient>
    <radialGradient
       cx="83000"
       cy="36300"
       r="750"
       gradientUnits="userSpaceOnUse"
       id="color-14"
       gradientTransform="matrix(-1,0,0,1,135000,0)">
      <stop
         offset="0.13333"
         stop-color="#f44336"
         id="stop67" />
      <stop
         offset="0.13333"
         stop-color="#b71c1c"
         id="stop69" />
    </radialGradient>
    <radialGradient
       cx="83000"
       cy="27000"
       r="750"
       gradientUnits="userSpaceOnUse"
       id="color-15"
       gradientTransform="matrix(-1,0,0,1,135000,0)">
      <stop
         offset="0.13333"
         stop-color="#f44336"
         id="stop72" />
      <stop
         offset="0.13333"
         stop-color="#b71c1c"
         id="stop74" />
    </radialGradient>
    <radialGradient
       cx="73900"
       cy="24800"
       r="750"
       gradientUnits="userSpaceOnUse"
       id="color-16"
       gradientTransform="matrix(-1,0,0,1,135000,0)">
      <stop
         offset="0.13333"
         stop-color="#f44336"
         id="stop77" />
      <stop
         offset="0.13333"
         stop-color="#b71c1c"
         id="stop79" />
    </radialGradient>
    <radialGradient
       cx="61500"
       cy="24800"
       r="750"
       gradientUnits="userSpaceOnUse"
       id="color-17"
       gradientTransform="matrix(-1,0,0,1,135000,0)">
      <stop
         offset="0.13333"
         stop-color="#f44336"
         id="stop82" />
      <stop
         offset="0.13333"
         stop-color="#b71c1c"
         id="stop84" />
    </radialGradient>
    <radialGradient
       cx="51100"
       cy="24800"
       r="750"
       gradientUnits="userSpaceOnUse"
       id="color-18"
       gradientTransform="matrix(-1,0,0,1,135000,0)">
      <stop
         offset="0.13333"
         stop-color="#f44336"
         id="stop87" />
      <stop
         offset="0.13333"
         stop-color="#b71c1c"
         id="stop89" />
    </radialGradient>
    <radialGradient
       cx="40700"
       cy="24800"
       r="750"
       gradientUnits="userSpaceOnUse"
       id="color-19"
       gradientTransform="matrix(-1,0,0,1,135000,0)">
      <stop
         offset="0.13333"
         stop-color="#f44336"
         id="stop92" />
      <stop
         offset="0.13333"
         stop-color="#b71c1c"
         id="stop94" />
    </radialGradient>
    <radialGradient
       cx="80000"
       cy="63000"
       r="2020"
       gradientUnits="userSpaceOnUse"
       id="color-20"
       gradientTransform="matrix(-1,0,0,1,135000,0)">
      <stop
         offset="1"
         stop-color="#ef5350"
         id="stop97" />
      <stop
         offset="1"
         stop-color="#b71c1c"
         id="stop99" />
    </radialGradient>
    <radialGradient
       cx="100000"
       cy="60000"
       r="2020"
       gradientUnits="userSpaceOnUse"
       id="color-21"
       gradientTransform="matrix(-1,0,0,1,135000,0)">
      <stop
         offset="1"
         stop-color="#ef5350"
         id="stop102" />
      <stop
         offset="1"
         stop-color="#b71c1c"
         id="stop104" />
    </radialGradient>
    <radialGradient
       cx="110000"
       cy="40000"
       r="2020"
       gradientUnits="userSpaceOnUse"
       id="color-22"
       gradientTransform="matrix(-1,0,0,1,135000,0)">
      <stop
         offset="1"
         stop-color="#ef5350"
         id="stop107" />
      <stop
         offset="1"
         stop-color="#b71c1c"
         id="stop109" />
    </radialGradient>
  </defs>
  <path
     style="font-family:none;mix-blend-mode:normal;fill:#b71c1c;fill-rule:nonzero;stroke:none;stroke-width:0;stroke-linecap:butt;stroke-linejoin:miter;stroke-miterlimit:10;stroke-dasharray:none;stroke-dashoffset:0"
     d="M 94.488281 75.099609 C 94.216911 75.099609 93.996094 75.318485 93.996094 75.589844 L 93.996094 151.18164 C 93.996094 151.453 94.216911 151.67188 94.488281 151.67188 C 94.759651 151.67188 94.980469 151.453 94.980469 151.18164 L 94.980469 76.082031 L 196.04492 76.082031 L 196.04492 102.04688 C 196.04492 102.31823 196.2638 102.53906 196.53516 102.53906 C 196.80651 102.53906 197.02734 102.31823 197.02734 102.04688 L 197.02734 94.599609 L 356.41016 94.222656 L 387.7793 94.222656 C 388.05067 94.222656 388.27148 94.003781 388.27148 93.732422 C 388.27148 93.461063 388.05067 93.240234 387.7793 93.240234 L 356.41016 93.240234 C 356.40949 93.240233 356.40887 93.240233 356.4082 93.240234 L 197.02734 93.617188 L 197.02734 75.589844 C 197.02734 75.318485 196.80651 75.099609 196.53516 75.099609 L 94.488281 75.099609 z M 390.07031 112.89453 C 389.94471 112.88855 389.8172 112.93022 389.7168 113.02148 L 381.54492 120.45312 L 370.39453 120.45312 L 349.24805 120.45312 L 358.58398 113.78516 C 358.8048 113.62743 358.85695 113.32042 358.69922 113.09961 C 358.5415 112.87879 358.23449 112.8286 358.01367 112.98633 L 347.56055 120.45312 L 307.94727 120.45312 L 319.24219 113.80859 C 319.47608 113.67101 319.5536 113.37061 319.41602 113.13672 C 319.27843 112.90283 318.97608 112.8253 318.74219 112.96289 L 306.00781 120.45312 L 269.96875 120.45312 L 279.95703 113.79492 C 280.18282 113.6444 280.24427 113.33907 280.09375 113.11328 C 279.94323 112.8875 279.63789 112.82604 279.41211 112.97656 L 268.19727 120.45312 L 253.22852 120.45312 C 253.20909 120.45312 253.19266 120.46265 253.17383 120.46484 C 253.14098 120.4685 253.11006 120.47396 253.07812 120.48438 C 253.04537 120.49508 253.01565 120.50839 252.98633 120.52539 C 252.97042 120.53451 252.95263 120.53773 252.9375 120.54883 L 241.97656 128.58594 L 229.42188 113.07617 C 229.25113 112.86526 228.94138 112.83317 228.73047 113.00391 C 228.51956 113.17465 228.48747 113.4844 228.6582 113.69531 L 240.85938 128.76758 L 227.52734 128.76758 C 227.25599 128.76758 227.03711 128.98841 227.03711 129.25977 C 227.03711 129.53112 227.25599 129.75195 227.52734 129.75195 L 241.89062 129.75195 C 241.91091 129.75195 241.92763 129.74262 241.94727 129.74023 C 241.96973 129.73761 241.99156 129.7382 242.01367 129.73242 C 242.02712 129.7289 242.03953 129.72345 242.05273 129.71875 C 242.08265 129.70806 242.10785 129.69179 242.13477 129.67578 C 242.14922 129.6673 242.16588 129.66638 242.17969 129.65625 L 242.19922 129.64258 C 242.19922 129.64258 242.20117 129.64062 242.20117 129.64062 L 253.39258 121.43555 L 370.39453 121.43555 L 411.61328 121.43555 L 434.08398 188.84375 L 396.64648 226.28125 L 337.625 226.28125 L 337.625 196.53516 C 337.625 196.2638 337.40612 196.04492 337.13477 196.04492 C 336.86341 196.04492 336.64258 196.2638 336.64258 196.53516 L 336.64258 226.28125 L 261.2793 226.28125 L 261.2793 196.53516 C 261.2793 196.2638 261.05847 196.04492 260.78711 196.04492 C 260.51575 196.04492 260.29688 196.2638 260.29688 196.53516 L 260.29688 226.28125 L 207.87305 226.28125 C 207.60169 226.28125 207.38281 226.50013 207.38281 226.77148 L 207.38281 238.10938 C 207.38281 238.38073 207.60169 238.60156 207.87305 238.60156 C 208.14441 238.60156 208.36523 238.38073 208.36523 238.10938 L 208.36523 227.26367 L 260.78711 227.26367 L 396.84961 227.26367 C 396.91248 227.26367 396.97601 227.25055 397.03516 227.22656 C 397.03516 227.22656 397.03711 227.22461 397.03711 227.22461 C 397.09728 227.1997 397.15194 227.16447 397.19727 227.11914 L 434.99219 189.32422 C 435.0084 189.30801 435.01582 189.2873 435.0293 189.26953 C 435.05186 189.23998 435.0745 189.21147 435.08984 189.17773 C 435.10387 189.1467 435.10994 189.11483 435.11719 189.08203 C 435.12357 189.05373 435.13155 189.0274 435.13281 188.99805 C 435.13456 188.95841 435.12694 188.9199 435.11914 188.88086 C 435.11514 188.86074 435.11798 188.84029 435.11133 188.82031 L 412.43555 120.78906 C 412.43333 120.7824 412.42825 120.77798 412.42578 120.77148 C 412.41313 120.73828 412.39224 120.71095 412.37305 120.68164 C 412.35741 120.65774 412.34537 120.6318 412.32617 120.61133 C 412.3015 120.58492 412.27016 120.56733 412.24023 120.54688 C 412.21848 120.53205 412.19958 120.51312 412.17578 120.50195 C 412.14609 120.48803 412.11265 120.48435 412.08008 120.47656 C 412.04935 120.46912 412.0203 120.4584 411.98828 120.45703 C 411.98143 120.45675 411.97567 120.45312 411.96875 120.45312 L 383.00391 120.45312 L 390.37695 113.75 C 390.57772 113.56746 390.59271 113.25547 390.41016 113.05469 C 390.3189 112.95429 390.19592 112.90051 390.07031 112.89453 z M 264.56641 132.54883 C 264.29505 132.54883 264.07617 132.7677 264.07617 133.03906 L 264.07617 150.68945 L 197.02734 150.68945 L 197.02734 136.0625 C 197.02734 135.79114 196.80651 135.57227 196.53516 135.57227 C 196.2638 135.57227 196.04492 135.79114 196.04492 136.0625 L 196.04492 150.99805 L 131.9082 226.45312 C 131.73246 226.65988 131.75807 226.97074 131.96484 227.14648 C 132.17158 227.32223 132.48246 227.2966 132.6582 227.08984 L 196.76367 151.67188 L 264.56641 151.67188 C 264.83776 151.67188 265.05859 151.453 265.05859 151.18164 L 265.05859 133.53125 L 281.57422 133.53125 L 360.18945 133.53125 L 392.31445 133.53125 C 392.58582 133.53125 392.80664 133.31042 392.80664 133.03906 C 392.80664 132.7677 392.58582 132.54883 392.31445 132.54883 L 360.18945 132.54883 L 281.57422 132.54883 L 264.56641 132.54883 z "
     transform="scale(264.58333)"
     id="path114" />
</svg>
