<?xml version="1.0" encoding="UTF-8" standalone="no"?>
<svg
   xmlns:dc="http://purl.org/dc/elements/1.1/"
   xmlns:cc="http://creativecommons.org/ns#"
   xmlns:rdf="http://www.w3.org/1999/02/22-rdf-syntax-ns#"
   xmlns:svg="http://www.w3.org/2000/svg"
   xmlns="http://www.w3.org/2000/svg"
   xmlns:sodipodi="http://sodipodi.sourceforge.net/DTD/sodipodi-0.dtd"
   xmlns:inkscape="http://www.inkscape.org/namespaces/inkscape"
   width="135.8mm"
   height="85.80000000000003mm"
   viewBox="0 0 135800 85800.00000000003"
   version="1.1"
   id="svg274"
   sodipodi:docname="F_500_64.svg"
   inkscape:version="0.92.1 r15371">
  <metadata
     id="metadata278">
    <rdf:RDF>
      <cc:Work
         rdf:about="">
        <dc:format>image/svg+xml</dc:format>
        <dc:type
           rdf:resource="http://purl.org/dc/dcmitype/StillImage" />
        <dc:title />
      </cc:Work>
    </rdf:RDF>
  </metadata>
  <sodipodi:namedview
     pagecolor="#ffffff"
     bordercolor="#666666"
     borderopacity="1"
     objecttolerance="10"
     gridtolerance="10"
     guidetolerance="10"
     inkscape:pageopacity="0"
     inkscape:pageshadow="2"
     inkscape:window-width="1536"
     inkscape:window-height="801"
     id="namedview276"
     showgrid="false"
     inkscape:zoom="1.5815743"
     inkscape:cx="245.22912"
     inkscape:cy="176.79927"
     inkscape:window-x="-8"
     inkscape:window-y="-8"
     inkscape:window-maximized="1"
     inkscape:current-layer="svg274" />
  <defs
     id="defs102">
    <radialGradient
       cx="32300"
       cy="20000"
       r="1010"
       gradientUnits="userSpaceOnUse"
       id="color-1">
      <stop
         offset="0.9901"
         stop-color="#3f51b5"
         id="stop2" />
      <stop
         offset="0.9901"
         stop-color="#1a237e"
         id="stop4" />
    </radialGradient>
    <radialGradient
       cx="24000"
       cy="30000"
       r="1010"
       gradientUnits="userSpaceOnUse"
       id="color-2">
      <stop
         offset="0.9901"
         stop-color="#3f51b5"
         id="stop7" />
      <stop
         offset="0.9901"
         stop-color="#1a237e"
         id="stop9" />
    </radialGradient>
    <radialGradient
       cx="89800"
       cy="27000"
       r="1010"
       gradientUnits="userSpaceOnUse"
       id="color-3">
      <stop
         offset="0.9901"
         stop-color="#3f51b5"
         id="stop12" />
      <stop
         offset="0.9901"
         stop-color="#1a237e"
         id="stop14" />
    </radialGradient>
    <radialGradient
       cx="73900"
       cy="20200"
       r="1010"
       gradientUnits="userSpaceOnUse"
       id="color-4">
      <stop
         offset="0.9901"
         stop-color="#3f51b5"
         id="stop17" />
      <stop
         offset="0.9901"
         stop-color="#1a237e"
         id="stop19" />
    </radialGradient>
    <radialGradient
       cx="61500"
       cy="20200"
       r="1010"
       gradientUnits="userSpaceOnUse"
       id="color-5">
      <stop
         offset="0.9901"
         stop-color="#3f51b5"
         id="stop22" />
      <stop
         offset="0.9901"
         stop-color="#1a237e"
         id="stop24" />
    </radialGradient>
    <radialGradient
       cx="51100"
       cy="20200"
       r="1010"
       gradientUnits="userSpaceOnUse"
       id="color-6">
      <stop
         offset="0.9901"
         stop-color="#3f51b5"
         id="stop27" />
      <stop
         offset="0.9901"
         stop-color="#1a237e"
         id="stop29" />
    </radialGradient>
    <radialGradient
       cx="40700"
       cy="20200"
       r="1010"
       gradientUnits="userSpaceOnUse"
       id="color-7">
      <stop
         offset="0.9901"
         stop-color="#3f51b5"
         id="stop32" />
      <stop
         offset="0.9901"
         stop-color="#1a237e"
         id="stop34" />
    </radialGradient>
    <radialGradient
       cx="32300"
       cy="20000"
       r="800"
       gradientUnits="userSpaceOnUse"
       id="color-8">
      <stop
         offset="1"
         stop-color="#5c6bc0"
         id="stop37" />
      <stop
         offset="1"
         stop-color="#1a237e"
         id="stop39" />
    </radialGradient>
    <radialGradient
       cx="89800"
       cy="36300"
       r="1010"
       gradientUnits="userSpaceOnUse"
       id="color-9">
      <stop
         offset="1"
         stop-color="#5c6bc0"
         id="stop42" />
      <stop
         offset="1"
         stop-color="#1a237e"
         id="stop44" />
    </radialGradient>
    <radialGradient
       cx="24000"
       cy="30000"
       r="800"
       gradientUnits="userSpaceOnUse"
       id="color-10">
      <stop
         offset="1"
         stop-color="#5c6bc0"
         id="stop47" />
      <stop
         offset="1"
         stop-color="#1a237e"
         id="stop49" />
    </radialGradient>
    <radialGradient
       cx="40000"
       cy="52000"
       r="1010"
       gradientUnits="userSpaceOnUse"
       id="color-11">
      <stop
         offset="1"
         stop-color="#5c6bc0"
         id="stop52" />
      <stop
         offset="1"
         stop-color="#1a237e"
         id="stop54" />
    </radialGradient>
    <radialGradient
       cx="60500"
       cy="39800"
       r="1010"
       gradientUnits="userSpaceOnUse"
       id="color-12">
      <stop
         offset="1"
         stop-color="#5c6bc0"
         id="stop57" />
      <stop
         offset="1"
         stop-color="#1a237e"
         id="stop59" />
    </radialGradient>
    <radialGradient
       cx="50100"
       cy="39800"
       r="1010"
       gradientUnits="userSpaceOnUse"
       id="color-13">
      <stop
         offset="1"
         stop-color="#5c6bc0"
         id="stop62" />
      <stop
         offset="1"
         stop-color="#1a237e"
         id="stop64" />
    </radialGradient>
    <radialGradient
       cx="39700"
       cy="39800"
       r="1010"
       gradientUnits="userSpaceOnUse"
       id="color-14">
      <stop
         offset="1"
         stop-color="#5c6bc0"
         id="stop67" />
      <stop
         offset="1"
         stop-color="#1a237e"
         id="stop69" />
    </radialGradient>
    <radialGradient
       cx="31300"
       cy="39900"
       r="1010"
       gradientUnits="userSpaceOnUse"
       id="color-15">
      <stop
         offset="1"
         stop-color="#5c6bc0"
         id="stop72" />
      <stop
         offset="1"
         stop-color="#1a237e"
         id="stop74" />
    </radialGradient>
    <radialGradient
       cx="89800"
       cy="27000"
       r="800"
       gradientUnits="userSpaceOnUse"
       id="color-16">
      <stop
         offset="1"
         stop-color="#5c6bc0"
         id="stop77" />
      <stop
         offset="1"
         stop-color="#1a237e"
         id="stop79" />
    </radialGradient>
    <radialGradient
       cx="73900"
       cy="20200"
       r="800"
       gradientUnits="userSpaceOnUse"
       id="color-17">
      <stop
         offset="1"
         stop-color="#5c6bc0"
         id="stop82" />
      <stop
         offset="1"
         stop-color="#1a237e"
         id="stop84" />
    </radialGradient>
    <radialGradient
       cx="61500"
       cy="20200"
       r="800"
       gradientUnits="userSpaceOnUse"
       id="color-18">
      <stop
         offset="1"
         stop-color="#5c6bc0"
         id="stop87" />
      <stop
         offset="1"
         stop-color="#1a237e"
         id="stop89" />
    </radialGradient>
    <radialGradient
       cx="51100"
       cy="20200"
       r="800"
       gradientUnits="userSpaceOnUse"
       id="color-19">
      <stop
         offset="1"
         stop-color="#5c6bc0"
         id="stop92" />
      <stop
         offset="1"
         stop-color="#1a237e"
         id="stop94" />
    </radialGradient>
    <radialGradient
       cx="40700"
       cy="20200"
       r="800"
       gradientUnits="userSpaceOnUse"
       id="color-20">
      <stop
         offset="1"
         stop-color="#5c6bc0"
         id="stop97" />
      <stop
         offset="1"
         stop-color="#1a237e"
         id="stop99" />
    </radialGradient>
  </defs>
  <path
     style="font-family:none;mix-blend-mode:normal;fill:#1a237e;fill-rule:nonzero;stroke:none;stroke-width:0;stroke-linecap:butt;stroke-linejoin:miter;stroke-miterlimit:10;stroke-dasharray:none;stroke-dashoffset:0"
     d="M 121.13477 75.589844 L 121.13477 91.060547 C 120.26719 91.367102 119.59246 92.082496 119.3457 92.976562 L 124.81055 92.976562 C 124.56379 92.082496 123.89101 91.367102 123.02344 91.060547 L 123.02344 75.589844 L 121.13477 75.589844 z M 119.3457 94.488281 C 119.59246 95.382347 120.26719 96.097741 121.13477 96.404297 L 121.13477 110.72266 C 121.07126 110.70009 121.01081 110.67042 120.94531 110.65234 L 120.94531 112.44141 L 120.94531 114.33008 L 120.94531 116.11914 C 121.83938 115.87238 122.55477 115.19765 122.86133 114.33008 L 149.10156 114.33008 L 149.10156 130.36914 C 148.23517 130.67618 147.56098 131.38998 147.31445 132.2832 L 152.7793 132.2832 C 152.53254 131.38914 151.85976 130.67374 150.99219 130.36719 L 150.99219 116.04883 C 151.05569 116.0714 151.11614 116.10106 151.18164 116.11914 L 151.18164 110.65234 C 150.28757 110.8991 149.57023 111.57383 149.26367 112.44141 L 123.02344 112.44141 L 123.02344 96.404297 C 123.89101 96.097741 124.56379 95.382347 124.81055 94.488281 L 119.3457 94.488281 z M 312.94531 99.314453 C 312.05209 99.560981 311.33633 100.23517 311.0293 101.10156 L 306.14258 101.10156 C 306.12878 101.10156 306.11717 101.10879 306.10352 101.10938 C 306.03838 101.11207 305.97835 101.13073 305.91602 101.14648 C 305.85896 101.16088 305.80045 101.16911 305.74805 101.19336 C 305.69469 101.21794 305.65152 101.25694 305.60352 101.29102 C 305.55178 101.3279 305.49833 101.35992 305.45508 101.40625 C 305.4191 101.4446 305.39668 101.49249 305.36719 101.53711 C 305.32863 101.5954 305.28868 101.65043 305.26367 101.7168 C 305.25929 101.72841 305.25005 101.73617 305.24609 101.74805 L 301.67969 112.44141 L 283.86914 112.44141 C 283.56259 111.57383 282.84719 110.8991 281.95312 110.65234 L 281.95312 116.11914 C 282.01862 116.10106 282.07907 116.0714 282.14258 116.04883 L 282.14258 126.48828 C 281.09633 126.7012 280.25798 127.48428 279.97656 128.50391 L 282.54883 128.50391 C 282.70337 128.61409 282.88168 128.69336 283.08594 128.69336 L 301.72266 128.69336 L 305.26367 137.54688 C 305.26514 137.55054 305.26803 137.55301 305.26953 137.55664 C 305.38369 137.83302 305.63007 138.02829 305.92578 138.09961 C 305.99464 138.11615 306.06105 138.13996 306.13281 138.14062 C 306.13625 138.14066 306.13913 138.14258 306.14258 138.14258 L 311.0293 138.14258 C 311.33633 139.00897 312.05209 139.68316 312.94531 139.92969 L 312.94531 134.46484 C 312.05125 134.7116 311.3339 135.38438 311.02734 136.25195 L 306.78125 136.25195 L 303.24023 127.39648 C 303.23876 127.39281 303.23589 127.39037 303.23438 127.38672 C 303.13994 127.15939 302.96043 126.97577 302.73438 126.87891 C 302.73438 126.87891 302.73242 126.87891 302.73242 126.87891 C 302.73242 126.87891 302.73047 126.87695 302.73047 126.87695 C 302.70712 126.86708 302.67856 126.86933 302.6543 126.86133 C 302.56239 126.83104 302.46935 126.80559 302.37109 126.80469 C 302.36765 126.80465 302.36478 126.80273 302.36133 126.80273 L 284.11328 126.80273 C 284.08586 126.78702 284.05924 126.77067 284.03125 126.75586 L 284.03125 114.33008 L 302.36133 114.33008 C 302.3738 114.33008 302.38413 114.32274 302.39648 114.32227 C 302.46792 114.31961 302.53355 114.29955 302.60156 114.28125 C 302.65379 114.26723 302.70762 114.26061 302.75586 114.23828 C 302.80768 114.2144 302.84969 114.17738 302.89648 114.14453 C 302.94973 114.10698 303.00448 114.07484 303.04883 114.02734 C 303.08483 113.98897 303.10721 113.94114 303.13672 113.89648 C 303.17527 113.8382 303.21523 113.78317 303.24023 113.7168 C 303.24461 113.70518 303.25385 113.69743 303.25781 113.68555 L 306.82422 102.99219 L 311.02734 102.99219 C 311.3339 103.85976 312.05125 104.53254 312.94531 104.7793 L 312.94531 99.314453 z M 314.45703 99.314453 L 314.45703 104.7793 C 315.3511 104.53254 316.06649 103.85976 316.37305 102.99219 L 336.37891 102.99219 C 336.90075 102.99219 337.32227 102.56872 337.32227 102.04688 C 337.32227 101.52503 336.90075 101.10156 336.37891 101.10156 L 316.37109 101.10156 C 316.06406 100.23517 315.35026 99.560981 314.45703 99.314453 z M 119.43359 110.65234 C 118.53953 110.8991 117.82218 111.57383 117.51562 112.44141 L 90.708984 112.44141 L 90.708984 114.33008 L 117.35352 114.33008 L 117.35352 130.36914 C 116.48712 130.67618 115.81293 131.38998 115.56641 132.2832 L 121.03125 132.2832 C 120.78449 131.38914 120.11172 130.67374 119.24414 130.36719 L 119.24414 116.04883 C 119.30765 116.0714 119.36809 116.10106 119.43359 116.11914 L 119.43359 110.65234 z M 152.69336 110.65234 L 152.69336 116.11914 C 153.89192 115.78834 154.77148 114.69048 154.77148 113.38672 C 154.77148 112.08296 153.89192 110.98314 152.69336 110.65234 z M 280.44141 110.65234 C 279.24285 110.98314 278.36133 112.08296 278.36133 113.38672 C 278.36133 114.69048 279.24285 115.78834 280.44141 116.11914 L 280.44141 110.65234 z M 279.97656 130.01562 C 280.22332 130.90969 280.8961 131.62509 281.76367 131.93164 L 281.76367 154.96094 L 281.76367 173.85742 L 281.76367 195.58984 L 275.90625 195.58984 L 252.11914 195.58984 C 251.8121 194.72345 251.0983 194.04926 250.20508 193.80273 L 250.20508 199.26758 C 251.09914 199.02082 251.81454 198.34804 252.12109 197.48047 L 275.90625 197.48047 L 282.70898 197.48047 C 282.83945 197.48047 282.96313 197.45406 283.07617 197.40625 C 283.4153 197.26281 283.6543 196.92654 283.6543 196.53516 L 283.6543 173.85742 L 283.6543 154.96094 L 283.6543 131.92969 C 284.52069 131.62265 285.19488 130.90885 285.44141 130.01562 L 279.97656 130.01562 z M 115.56641 133.79492 C 115.813 134.68839 116.48677 135.40404 117.35352 135.71094 L 117.35352 148.91406 L 119.24414 148.91406 L 119.24414 135.71094 C 120.1117 135.40438 120.78449 134.68898 121.03125 133.79492 L 115.56641 133.79492 z M 147.31445 133.79492 C 147.56105 134.68839 148.23482 135.40404 149.10156 135.71094 L 149.10156 147.40234 C 149.10156 147.92419 149.52503 148.3457 150.04688 148.3457 C 150.56872 148.3457 150.99219 147.92419 150.99219 147.40234 L 150.99219 135.71094 C 151.85975 135.40438 152.53254 134.68898 152.7793 133.79492 L 147.31445 133.79492 z M 314.45703 134.46484 L 314.45703 139.92969 C 315.35026 139.68316 316.06406 139.00897 316.37109 138.14258 L 336.37891 138.14258 C 336.90075 138.14258 337.32227 137.71911 337.32227 137.19727 C 337.32227 136.67542 336.90075 136.25195 336.37891 136.25195 L 316.37305 136.25195 C 316.06649 135.38438 315.3511 134.7116 314.45703 134.46484 z M 193.51172 189.35352 C 191.42434 189.35352 189.73242 191.04739 189.73242 193.13477 L 189.73242 199.74805 C 189.73242 200.79173 188.88548 201.63867 187.8418 201.63867 C 186.79811 201.63867 185.95312 200.79173 185.95312 199.74805 L 185.95312 195.49609 L 184.0625 195.49609 L 184.0625 195.58984 L 175.77344 195.58984 C 175.4664 194.72345 174.75065 194.04926 173.85742 193.80273 L 173.85742 195.58984 L 173.85742 197.48047 L 173.85742 199.26758 C 174.75149 199.02082 175.46884 198.34804 175.77539 197.48047 L 184.0625 197.48047 L 184.0625 199.74805 C 184.0625 201.83542 185.75442 203.52734 187.8418 203.52734 C 189.92917 203.52734 191.62109 201.83542 191.62109 199.74805 L 191.62109 193.13477 C 191.62109 192.09108 192.46803 191.24414 193.51172 191.24414 C 194.55541 191.24414 195.40234 192.09108 195.40234 193.13477 L 195.40234 199.74805 C 195.40234 201.83542 197.09426 203.52734 199.18164 203.52734 C 201.26902 203.52734 202.96094 201.83542 202.96094 199.74805 L 202.96094 193.13477 C 202.96094 192.09108 203.80592 191.24414 204.84961 191.24414 C 205.8933 191.24414 206.74023 192.09108 206.74023 193.13477 L 206.74023 199.74805 C 206.74023 201.83542 208.43215 203.52734 210.51953 203.52734 C 212.60691 203.52734 214.29883 201.83542 214.29883 199.74805 L 214.29883 193.13477 C 214.29883 192.09108 215.14577 191.24414 216.18945 191.24414 C 217.23314 191.24414 218.07812 192.09108 218.07812 193.13477 L 218.07812 199.74805 C 218.07812 201.83542 219.77005 203.52734 221.85742 203.52734 C 223.9448 203.52734 225.63867 201.83542 225.63867 199.74805 L 225.63867 193.13477 C 225.63867 192.09108 226.48366 191.24414 227.52734 191.24414 C 228.57103 191.24414 229.41797 192.09108 229.41797 193.13477 L 229.41797 199.74805 C 229.41797 201.83542 231.10989 203.52734 233.19727 203.52734 C 235.28464 203.52734 236.97656 201.83542 236.97656 199.74805 L 236.97656 193.13477 C 236.97656 192.09108 237.82155 191.24414 238.86523 191.24414 C 239.90892 191.24414 240.75586 192.09108 240.75586 193.13477 L 240.75586 197.38672 L 241.49219 197.38672 C 241.61375 197.44367 241.74751 197.48047 241.89062 197.48047 L 246.77539 197.48047 C 247.08195 198.34804 247.79929 199.02082 248.69336 199.26758 L 248.69336 193.80273 C 247.80013 194.04926 247.08438 194.72345 246.77734 195.58984 L 242.64648 195.58984 L 242.64648 193.13477 C 242.64648 191.04739 240.95261 189.35352 238.86523 189.35352 C 236.77786 189.35352 235.08594 191.04739 235.08594 193.13477 L 235.08594 199.74805 C 235.08594 200.79173 234.24095 201.63867 233.19727 201.63867 C 232.15358 201.63867 231.30664 200.79173 231.30664 199.74805 L 231.30664 193.13477 C 231.30664 191.04739 229.61472 189.35352 227.52734 189.35352 C 225.43997 189.35352 223.74805 191.04739 223.74805 193.13477 L 223.74805 199.74805 C 223.74805 200.79173 222.90111 201.63867 221.85742 201.63867 C 220.81374 201.63867 219.96875 200.79173 219.96875 199.74805 L 219.96875 193.13477 C 219.96875 191.04739 218.27683 189.35352 216.18945 189.35352 C 214.10208 189.35352 212.41016 191.04739 212.41016 193.13477 L 212.41016 199.74805 C 212.41016 200.79173 211.56322 201.63867 210.51953 201.63867 C 209.47584 201.63867 208.63086 200.79173 208.63086 199.74805 L 208.63086 193.13477 C 208.63086 191.04739 206.93699 189.35352 204.84961 189.35352 C 202.76223 189.35352 201.07031 191.04739 201.07031 193.13477 L 201.07031 199.74805 C 201.07031 200.79173 200.22533 201.63867 199.18164 201.63867 C 198.13795 201.63867 197.29102 200.79173 197.29102 199.74805 L 197.29102 193.13477 C 197.29102 191.04739 195.5991 189.35352 193.51172 189.35352 z M 172.3457 193.80273 C 171.45248 194.04926 170.73868 194.72345 170.43164 195.58984 L 151.18164 195.58984 C 150.6598 195.58984 150.23633 196.01331 150.23633 196.53516 C 150.23633 197.057 150.6598 197.48047 151.18164 197.48047 L 170.42969 197.48047 C 170.73624 198.34804 171.45164 199.02082 172.3457 199.26758 L 172.3457 193.80273 z "
     transform="scale(264.58333)"
     id="path104" />
</svg>
