<?xml version="1.0" encoding="UTF-8" standalone="no"?>
<svg
   xmlns:dc="http://purl.org/dc/elements/1.1/"
   xmlns:cc="http://creativecommons.org/ns#"
   xmlns:rdf="http://www.w3.org/1999/02/22-rdf-syntax-ns#"
   xmlns:svg="http://www.w3.org/2000/svg"
   xmlns="http://www.w3.org/2000/svg"
   xmlns:sodipodi="http://sodipodi.sourceforge.net/DTD/sodipodi-0.dtd"
   xmlns:inkscape="http://www.inkscape.org/namespaces/inkscape"
   width="135.8mm"
   height="85.80000000000003mm"
   viewBox="0 0 135800 85800.00000000003"
   version="1.1"
   id="svg274"
   sodipodi:docname="F_PORTS_16.svg"
   inkscape:version="0.92.1 r15371">
  <metadata
     id="metadata278">
    <rdf:RDF>
      <cc:Work
         rdf:about="">
        <dc:format>image/svg+xml</dc:format>
        <dc:type
           rdf:resource="http://purl.org/dc/dcmitype/StillImage" />
        <dc:title></dc:title>
      </cc:Work>
    </rdf:RDF>
  </metadata>
  <sodipodi:namedview
     pagecolor="#ffffff"
     bordercolor="#666666"
     borderopacity="1"
     objecttolerance="10"
     gridtolerance="10"
     guidetolerance="10"
     inkscape:pageopacity="0"
     inkscape:pageshadow="2"
     inkscape:window-width="1536"
     inkscape:window-height="801"
     id="namedview276"
     showgrid="false"
     inkscape:zoom="3.1631486"
     inkscape:cx="256.62993"
     inkscape:cy="200.07862"
     inkscape:window-x="-8"
     inkscape:window-y="-8"
     inkscape:window-maximized="1"
     inkscape:current-layer="svg274" />
  <defs
     id="defs102">
    <radialGradient
       cx="32300"
       cy="20000"
       r="1010"
       gradientUnits="userSpaceOnUse"
       id="color-1">
      <stop
         offset="0.9901"
         stop-color="#3f51b5"
         id="stop2" />
      <stop
         offset="0.9901"
         stop-color="#1a237e"
         id="stop4" />
    </radialGradient>
    <radialGradient
       cx="24000"
       cy="30000"
       r="1010"
       gradientUnits="userSpaceOnUse"
       id="color-2">
      <stop
         offset="0.9901"
         stop-color="#3f51b5"
         id="stop7" />
      <stop
         offset="0.9901"
         stop-color="#1a237e"
         id="stop9" />
    </radialGradient>
    <radialGradient
       cx="89800"
       cy="27000"
       r="1010"
       gradientUnits="userSpaceOnUse"
       id="color-3">
      <stop
         offset="0.9901"
         stop-color="#3f51b5"
         id="stop12" />
      <stop
         offset="0.9901"
         stop-color="#1a237e"
         id="stop14" />
    </radialGradient>
    <radialGradient
       cx="73900"
       cy="20200"
       r="1010"
       gradientUnits="userSpaceOnUse"
       id="color-4">
      <stop
         offset="0.9901"
         stop-color="#3f51b5"
         id="stop17" />
      <stop
         offset="0.9901"
         stop-color="#1a237e"
         id="stop19" />
    </radialGradient>
    <radialGradient
       cx="61500"
       cy="20200"
       r="1010"
       gradientUnits="userSpaceOnUse"
       id="color-5">
      <stop
         offset="0.9901"
         stop-color="#3f51b5"
         id="stop22" />
      <stop
         offset="0.9901"
         stop-color="#1a237e"
         id="stop24" />
    </radialGradient>
    <radialGradient
       cx="51100"
       cy="20200"
       r="1010"
       gradientUnits="userSpaceOnUse"
       id="color-6">
      <stop
         offset="0.9901"
         stop-color="#3f51b5"
         id="stop27" />
      <stop
         offset="0.9901"
         stop-color="#1a237e"
         id="stop29" />
    </radialGradient>
    <radialGradient
       cx="40700"
       cy="20200"
       r="1010"
       gradientUnits="userSpaceOnUse"
       id="color-7">
      <stop
         offset="0.9901"
         stop-color="#3f51b5"
         id="stop32" />
      <stop
         offset="0.9901"
         stop-color="#1a237e"
         id="stop34" />
    </radialGradient>
    <radialGradient
       cx="32300"
       cy="20000"
       r="800"
       gradientUnits="userSpaceOnUse"
       id="color-8"
       gradientTransform="translate(0,2.4059006e-5)">
      <stop
         offset="1"
         stop-color="#5c6bc0"
         id="stop37" />
      <stop
         offset="1"
         stop-color="#1a237e"
         id="stop39" />
    </radialGradient>
    <radialGradient
       cx="89800"
       cy="36300"
       r="1010"
       gradientUnits="userSpaceOnUse"
       id="color-9">
      <stop
         offset="1"
         stop-color="#5c6bc0"
         id="stop42" />
      <stop
         offset="1"
         stop-color="#1a237e"
         id="stop44" />
    </radialGradient>
    <radialGradient
       cx="24000"
       cy="30000"
       r="800"
       gradientUnits="userSpaceOnUse"
       id="color-10"
       gradientTransform="translate(0,2.4059006e-5)">
      <stop
         offset="1"
         stop-color="#5c6bc0"
         id="stop47" />
      <stop
         offset="1"
         stop-color="#1a237e"
         id="stop49" />
    </radialGradient>
    <radialGradient
       cx="40000"
       cy="52000"
       r="1010"
       gradientUnits="userSpaceOnUse"
       id="color-11">
      <stop
         offset="1"
         stop-color="#5c6bc0"
         id="stop52" />
      <stop
         offset="1"
         stop-color="#1a237e"
         id="stop54" />
    </radialGradient>
    <radialGradient
       cx="60500"
       cy="39800"
       r="1010"
       gradientUnits="userSpaceOnUse"
       id="color-12">
      <stop
         offset="1"
         stop-color="#5c6bc0"
         id="stop57" />
      <stop
         offset="1"
         stop-color="#1a237e"
         id="stop59" />
    </radialGradient>
    <radialGradient
       cx="50100"
       cy="39800"
       r="1010"
       gradientUnits="userSpaceOnUse"
       id="color-13">
      <stop
         offset="1"
         stop-color="#5c6bc0"
         id="stop62" />
      <stop
         offset="1"
         stop-color="#1a237e"
         id="stop64" />
    </radialGradient>
    <radialGradient
       cx="39700"
       cy="39800"
       r="1010"
       gradientUnits="userSpaceOnUse"
       id="color-14">
      <stop
         offset="1"
         stop-color="#5c6bc0"
         id="stop67" />
      <stop
         offset="1"
         stop-color="#1a237e"
         id="stop69" />
    </radialGradient>
    <radialGradient
       cx="31300"
       cy="39900"
       r="1010"
       gradientUnits="userSpaceOnUse"
       id="color-15">
      <stop
         offset="1"
         stop-color="#5c6bc0"
         id="stop72" />
      <stop
         offset="1"
         stop-color="#1a237e"
         id="stop74" />
    </radialGradient>
    <radialGradient
       cx="89800"
       cy="27000"
       r="800"
       gradientUnits="userSpaceOnUse"
       id="color-16"
       gradientTransform="translate(0,2.4059006e-5)">
      <stop
         offset="1"
         stop-color="#5c6bc0"
         id="stop77" />
      <stop
         offset="1"
         stop-color="#1a237e"
         id="stop79" />
    </radialGradient>
    <radialGradient
       cx="73900"
       cy="20200"
       r="800"
       gradientUnits="userSpaceOnUse"
       id="color-17"
       gradientTransform="translate(0,2.4059006e-5)">
      <stop
         offset="1"
         stop-color="#5c6bc0"
         id="stop82" />
      <stop
         offset="1"
         stop-color="#1a237e"
         id="stop84" />
    </radialGradient>
    <radialGradient
       cx="61500"
       cy="20200"
       r="800"
       gradientUnits="userSpaceOnUse"
       id="color-18"
       gradientTransform="translate(0,2.4059006e-5)">
      <stop
         offset="1"
         stop-color="#5c6bc0"
         id="stop87" />
      <stop
         offset="1"
         stop-color="#1a237e"
         id="stop89" />
    </radialGradient>
    <radialGradient
       cx="51100"
       cy="20200"
       r="800"
       gradientUnits="userSpaceOnUse"
       id="color-19"
       gradientTransform="translate(0,2.4059006e-5)">
      <stop
         offset="1"
         stop-color="#5c6bc0"
         id="stop92" />
      <stop
         offset="1"
         stop-color="#1a237e"
         id="stop94" />
    </radialGradient>
    <radialGradient
       cx="40700"
       cy="20200"
       r="800"
       gradientUnits="userSpaceOnUse"
       id="color-20"
       gradientTransform="translate(0,2.4059006e-5)">
      <stop
         offset="1"
         stop-color="#5c6bc0"
         id="stop97" />
      <stop
         offset="1"
         stop-color="#1a237e"
         id="stop99" />
    </radialGradient>
  </defs>
  <path
     inkscape:connector-curvature="0"
     style="font-family:none;mix-blend-mode:normal;fill:url(#color-8);fill-rule:nonzero;stroke:none;stroke-width:1;stroke-linecap:butt;stroke-linejoin:miter;stroke-miterlimit:10;stroke-dasharray:none;stroke-dashoffset:0"
     id="path246"
     d="m 31500,20000 c 0,-441.828 358.172,-800 800,-800 441.828,0 800,358.172 800,800 0,441.828 -358.172,800 -800,800 -441.828,0 -800,-358.172 -800,-800 z" />
  <path
     inkscape:connector-curvature="0"
     style="font-family:none;mix-blend-mode:normal;fill:url(#color-9);fill-rule:nonzero;stroke:none;stroke-width:1;stroke-linecap:butt;stroke-linejoin:miter;stroke-miterlimit:10;stroke-dasharray:none;stroke-dashoffset:0"
     id="path248"
     d="m 88790,36300 c 0,-557.808 452.192,-1010 1010,-1010 557.808,0 1010,452.192 1010,1010 0,557.808 -452.192,1010 -1010,1010 -557.808,0 -1010,-452.192 -1010,-1010 z" />
  <path
     inkscape:connector-curvature="0"
     style="font-family:none;mix-blend-mode:normal;fill:url(#color-10);fill-rule:nonzero;stroke:none;stroke-width:1;stroke-linecap:butt;stroke-linejoin:miter;stroke-miterlimit:10;stroke-dasharray:none;stroke-dashoffset:0"
     id="path250"
     d="m 23200,30000 c 0,-441.828 358.172,-800 800,-800 441.828,0 800,358.172 800,800 0,441.828 -358.172,800 -800,800 -441.828,0 -800,-358.172 -800,-800 z" />
  <path
     inkscape:connector-curvature="0"
     style="font-family:none;mix-blend-mode:normal;fill:url(#color-11);fill-rule:nonzero;stroke:none;stroke-width:1;stroke-linecap:butt;stroke-linejoin:miter;stroke-miterlimit:10;stroke-dasharray:none;stroke-dashoffset:0"
     id="path252"
     d="m 38990,52000 c 0,-557.808 452.192,-1010 1010,-1010 557.808,0 1010,452.192 1010,1010 0,557.808 -452.192,1010 -1010,1010 -557.808,0 -1010,-452.192 -1010,-1010 z" />
  <path
     inkscape:connector-curvature="0"
     style="font-family:none;mix-blend-mode:normal;fill:url(#color-12);fill-rule:nonzero;stroke:none;stroke-width:1;stroke-linecap:butt;stroke-linejoin:miter;stroke-miterlimit:10;stroke-dasharray:none;stroke-dashoffset:0"
     id="path254"
     d="m 59490,39800 c 0,-557.808 452.192,-1010 1010,-1010 557.808,0 1010,452.192 1010,1010 0,557.808 -452.192,1010 -1010,1010 -557.808,0 -1010,-452.192 -1010,-1010 z" />
  <path
     inkscape:connector-curvature="0"
     style="font-family:none;mix-blend-mode:normal;fill:url(#color-13);fill-rule:nonzero;stroke:none;stroke-width:1;stroke-linecap:butt;stroke-linejoin:miter;stroke-miterlimit:10;stroke-dasharray:none;stroke-dashoffset:0"
     id="path256"
     d="m 49090,39800 c 0,-557.808 452.192,-1010 1010,-1010 557.808,0 1010,452.192 1010,1010 0,557.808 -452.192,1010 -1010,1010 -557.808,0 -1010,-452.192 -1010,-1010 z" />
  <path
     inkscape:connector-curvature="0"
     style="font-family:none;mix-blend-mode:normal;fill:url(#color-14);fill-rule:nonzero;stroke:none;stroke-width:1;stroke-linecap:butt;stroke-linejoin:miter;stroke-miterlimit:10;stroke-dasharray:none;stroke-dashoffset:0"
     id="path258"
     d="m 38690,39800 c 0,-557.808 452.192,-1010 1010,-1010 557.808,0 1010,452.192 1010,1010 0,557.808 -452.192,1010 -1010,1010 -557.808,0 -1010,-452.192 -1010,-1010 z" />
  <path
     inkscape:connector-curvature="0"
     style="font-family:none;mix-blend-mode:normal;fill:url(#color-15);fill-rule:nonzero;stroke:none;stroke-width:1;stroke-linecap:butt;stroke-linejoin:miter;stroke-miterlimit:10;stroke-dasharray:none;stroke-dashoffset:0"
     id="path260"
     d="m 30290,39900 c 0,-557.808 452.192,-1010 1010,-1010 557.808,0 1010,452.192 1010,1010 0,557.808 -452.192,1010 -1010,1010 -557.808,0 -1010,-452.192 -1010,-1010 z" />
  <path
     inkscape:connector-curvature="0"
     style="font-family:none;mix-blend-mode:normal;fill:url(#color-16);fill-rule:nonzero;stroke:none;stroke-width:1;stroke-linecap:butt;stroke-linejoin:miter;stroke-miterlimit:10;stroke-dasharray:none;stroke-dashoffset:0"
     id="path262"
     d="m 89000,27000 c 0,-441.828 358.172,-800 800,-800 441.828,0 800,358.172 800,800 0,441.828 -358.172,800 -800,800 -441.828,0 -800,-358.172 -800,-800 z" />
  <path
     inkscape:connector-curvature="0"
     style="font-family:none;mix-blend-mode:normal;fill:url(#color-17);fill-rule:nonzero;stroke:none;stroke-width:1;stroke-linecap:butt;stroke-linejoin:miter;stroke-miterlimit:10;stroke-dasharray:none;stroke-dashoffset:0"
     id="path264"
     d="m 73100,20200 c 0,-441.828 358.172,-800 800,-800 441.828,0 800,358.172 800,800 0,441.828 -358.172,800 -800,800 -441.828,0 -800,-358.172 -800,-800 z" />
  <path
     inkscape:connector-curvature="0"
     style="font-family:none;mix-blend-mode:normal;fill:url(#color-18);fill-rule:nonzero;stroke:none;stroke-width:1;stroke-linecap:butt;stroke-linejoin:miter;stroke-miterlimit:10;stroke-dasharray:none;stroke-dashoffset:0"
     id="path266"
     d="m 60700,20200 c 0,-441.828 358.172,-800 800,-800 441.828,0 800,358.172 800,800 0,441.828 -358.172,800 -800,800 -441.828,0 -800,-358.172 -800,-800 z" />
  <path
     inkscape:connector-curvature="0"
     style="font-family:none;mix-blend-mode:normal;fill:url(#color-19);fill-rule:nonzero;stroke:none;stroke-width:1;stroke-linecap:butt;stroke-linejoin:miter;stroke-miterlimit:10;stroke-dasharray:none;stroke-dashoffset:0"
     id="path268"
     d="m 50300,20200 c 0,-441.828 358.172,-800 800,-800 441.828,0 800,358.172 800,800 0,441.828 -358.172,800 -800,800 -441.828,0 -800,-358.172 -800,-800 z" />
  <path
     inkscape:connector-curvature="0"
     style="font-family:none;mix-blend-mode:normal;fill:url(#color-20);fill-rule:nonzero;stroke:none;stroke-width:1;stroke-linecap:butt;stroke-linejoin:miter;stroke-miterlimit:10;stroke-dasharray:none;stroke-dashoffset:0"
     id="path270"
     d="m 39900,20200 c 0,-441.828 358.172,-800 800,-800 441.828,0 800,358.172 800,800 0,441.828 -358.172,800 -800,800 -441.828,0 -800,-358.172 -800,-800 z" />
</svg>
